<svg id="圖層_1" data-name="圖層 1" xmlns="http://www.w3.org/2000/svg" viewBox="0 0 612 568.7"><defs><style>.cls-1{fill:#fff;}</style></defs><title>calandar_white</title><rect class="cls-1" x="200.51" y="179.97" width="81.67" height="81.67"/><rect class="cls-1" x="329.82" y="179.97" width="81.67" height="81.67"/><rect class="cls-1" x="459.13" y="179.97" width="81.67" height="81.67"/><rect class="cls-1" x="71.21" y="302.47" width="81.67" height="81.67"/><rect class="cls-1" x="200.51" y="302.47" width="81.67" height="81.67"/><rect class="cls-1" x="329.82" y="302.47" width="81.67" height="81.67"/><rect class="cls-1" x="459.13" y="302.47" width="81.67" height="81.67"/><rect class="cls-1" x="71.21" y="424.98" width="81.67" height="81.66"/><rect class="cls-1" x="200.51" y="424.98" width="81.67" height="81.66"/><rect class="cls-1" x="329.82" y="424.98" width="81.67" height="81.66"/><path class="cls-1" d="M571.16,0H40.83A40.84,40.84,0,0,0,0,40.82v96.41H612V40.82A40.84,40.84,0,0,0,571.16,0ZM154.36,105.43A30.63,30.63,0,1,1,185,74.79v0A30.63,30.63,0,0,1,154.36,105.43Zm303.28,0A30.63,30.63,0,1,1,488.3,74.8a30.63,30.63,0,0,1-30.66,30.63h0Z"/><path class="cls-1" d="M584.78,527.87a13.62,13.62,0,0,1-13.61,13.61H40.84a13.63,13.63,0,0,1-13.61-13.61v-351H0v351A40.83,40.83,0,0,0,40.83,568.7H571.17A40.84,40.84,0,0,0,612,527.87v-351H584.79v351Z"/></svg>