<svg id="Capa_1" data-name="Capa 1" xmlns="http://www.w3.org/2000/svg" viewBox="0 0 512 512"><defs><style>.cls-1{fill:#fff;}</style></defs><title>smilewhite</title><path class="cls-1" d="M256,0C114.85,0,0,114.85,0,256S114.85,512,256,512,512,397.15,512,256,397.15,0,256,0ZM112,192a48,48,0,1,1,48,48A48.06,48.06,0,0,1,112,192ZM369.12,369.12a160,160,0,0,1-226.27,0,16,16,0,0,1,22.62-22.62c48.35,48.38,132.64,48.38,181,0a16,16,0,0,1,22.62,22.62ZM352,240a48,48,0,1,1,48-48A48.06,48.06,0,0,1,352,240Z"/></svg>