<?xml version="1.0"?>
<svg xmlns="http://www.w3.org/2000/svg" height="512px" viewBox="0 0 512 512" width="512px"><g><path d="m512 256c0 141.386719-114.613281 256-256 256s-256-114.613281-256-256 114.613281-256 256-256 256 114.613281 256 256zm0 0" fill="#ffbe73" data-original="#FFBE73"/><path d="m233.019531 380.601562c144.898438-18.109374 167.769531-99.625 167.769531-99.625s-227.679687-63.066406-227.878906-63.066406c-76.480468-75.832031-14.304687-197.859375-13.742187-198.960937-93.367188 38.1875-159.167969 129.941406-159.167969 237.050781 0 86.324219 42.730469 162.675781 108.191406 209.046875 11.621094-33.4375 42.800782-74.191406 124.828125-84.445313zm0 0" fill="#ffa93f" data-original="#FFA93F"/><path d="m372.042969 294.089844h-232.085938c-21.035156 0-38.089843-17.054688-38.089843-38.089844s17.054687-38.089844 38.089843-38.089844h232.085938c21.035156 0 38.089843 17.054688 38.089843 38.089844s-17.054687 38.089844-38.089843 38.089844zm0 0" fill="#fffcdc" data-original="#FFFCDC" class="active-path" style="fill:#FFFCDC"/></g> </svg>
